<svg width="183" height="48" viewBox="0 0 183 48" fill="none" xmlns="http://www.w3.org/2000/svg">
<g clip-path="url(#clip0_2426_106)">
<path d="M29.7367 48C31.7409 48 33.3656 46.3721 33.3656 44.3639C33.3656 42.3557 31.7409 40.7278 29.7367 40.7278C27.7325 40.7278 26.1078 42.3557 26.1078 44.3639C26.1078 46.3721 27.7325 48 29.7367 48Z" fill="#00264D"/>
<path d="M29.7367 7.27218C31.7409 7.27218 33.3656 5.64425 33.3656 3.63609C33.3656 1.62793 31.7409 0 29.7367 0C27.7325 0 26.1078 1.62793 26.1078 3.63609C26.1078 5.64425 27.7325 7.27218 29.7367 7.27218Z" fill="#00264D"/>
<path d="M51.2353 30.7421C51.2274 28.3086 50.4487 25.9405 49.0113 23.979C50.4266 22.0186 51.1863 19.6596 51.1815 17.24V17.1921C51.1759 15.636 50.8551 14.0973 50.2385 12.6691C49.622 11.241 48.7224 9.9531 47.5944 8.88357C45.9121 7.20541 43.7145 6.14427 41.3563 5.87146C38.9981 5.59866 36.617 6.13011 34.5973 7.38002C32.852 8.35093 31.199 9.47981 29.6591 10.7525C30.3944 11.3516 31.1238 11.9506 31.8412 12.5975C33.1491 11.5318 34.5497 10.5855 36.0261 9.77013C37.1707 9.08585 38.4577 8.67583 39.7866 8.57208C41.9249 8.56769 43.9827 9.38942 45.5318 10.8664C46.3911 11.6838 47.0758 12.6675 47.5444 13.758C48.013 14.8484 48.2558 16.0228 48.258 17.21V17.252C48.2606 19.4048 47.4733 21.4834 46.046 23.0925L45.2389 23.997L46.052 24.8896C47.5023 26.4928 48.3076 28.5782 48.3118 30.7421C48.3358 33.0074 47.4639 35.1901 45.8865 36.8131C44.3092 38.4362 42.1548 39.3677 39.8942 39.404C38.5599 39.2989 37.2674 38.8891 36.1158 38.2059C29.6172 34.8334 21.6779 24.8596 21.0501 23.8293C20.4822 22.9128 19.6572 22.4695 18.9995 22.8469C18.8522 22.9358 18.7306 23.0618 18.6468 23.2123C18.6468 23.2782 18.581 23.362 18.5631 23.4279C18.5452 23.4938 18.5631 23.4699 18.5631 23.4938C18.5174 23.654 18.4893 23.8187 18.4794 23.985C18.4794 23.985 18.4794 23.985 18.4794 24.021C18.4704 24.1246 18.4704 24.2288 18.4794 24.3325C18.488 24.4171 18.502 24.5012 18.5213 24.5841C19.1191 26.7645 22.9991 31.413 27.4052 35.3306C28.1226 35.9716 28.852 36.5945 29.5873 37.1756C31.1823 38.4874 32.8978 39.6447 34.7109 40.632C36.2982 41.5367 38.076 42.0538 39.9001 42.1415C42.9068 42.1195 45.7835 40.91 47.9057 38.7758C50.0279 36.6416 51.2243 33.7548 51.2353 30.7421Z" fill="#00264D"/>
<path d="M24.661 40.6499C26.4054 39.6669 28.0564 38.526 29.5932 37.2415C28.8579 36.6424 28.1285 36.0434 27.4111 35.3965C26.1032 36.4641 24.7027 37.4123 23.2262 38.2299C22.0819 38.9149 20.7948 39.325 19.4658 39.4279C17.3258 39.4373 15.2651 38.6174 13.7145 37.1396C12.8545 36.3215 12.1694 35.3368 11.7007 34.2453C11.2321 33.1537 10.9897 31.9782 10.9883 30.79V30.742C10.988 28.5896 11.775 26.5118 13.2004 24.9015L14.0075 23.997L13.1944 23.0985C11.747 21.4919 10.946 19.4043 10.9465 17.24V17.21C10.932 14.9503 11.808 12.7762 13.3841 11.16C14.9602 9.5437 17.1092 8.61587 19.3641 8.57805C20.697 8.69007 21.988 9.09941 23.1425 9.7761C29.6411 13.1486 37.5804 23.1224 38.2082 24.1527C38.806 25.0692 39.6012 25.5065 40.2588 25.1351C40.4036 25.0431 40.5245 24.9178 40.6115 24.7697C40.6115 24.6978 40.6773 24.62 40.6952 24.5541C40.7131 24.4882 40.6952 24.5062 40.6952 24.4882C40.7405 24.3259 40.7685 24.1592 40.7789 23.991V23.9551C40.7789 23.8532 40.7789 23.7514 40.7789 23.6436C40.7682 23.5588 40.7522 23.4748 40.7311 23.392C40.1332 21.2115 36.2532 16.5691 31.8471 12.6454C31.1297 12.0105 30.4003 11.3875 29.665 10.8004C28.07 9.48863 26.3545 8.33133 24.5415 7.34405C22.9541 6.43935 21.1763 5.92219 19.3522 5.8345C17.2558 5.86312 15.2076 6.46826 13.4312 7.58386C11.6547 8.69946 10.2183 10.2826 9.27875 12.1605C8.33918 14.0385 7.93257 16.1389 8.10333 18.2326C8.27408 20.3263 9.01563 22.3328 10.247 24.0329C8.83558 25.9844 8.0741 28.332 8.07087 30.742V30.7959C8.07849 32.3517 8.40021 33.8898 9.01667 35.3176C9.63313 36.7455 10.5316 38.0336 11.6579 39.1044C13.772 41.1149 16.581 42.227 19.4957 42.2074C21.3177 42.1135 23.0899 41.5791 24.661 40.6499Z" fill="#00264D"/>
<path d="M55.6354 27.5972C57.6396 27.5972 59.2643 25.9692 59.2643 23.9611C59.2643 21.9529 57.6396 20.325 55.6354 20.325C53.6312 20.325 52.0065 21.9529 52.0065 23.9611C52.0065 25.9692 53.6312 27.5972 55.6354 27.5972Z" fill="#00264D"/>
<path d="M3.62891 27.5972C5.6331 27.5972 7.25782 25.9692 7.25782 23.9611C7.25782 21.9529 5.6331 20.325 3.62891 20.325C1.62472 20.325 0 21.9529 0 23.9611C0 25.9692 1.62472 27.5972 3.62891 27.5972Z" fill="#00264D"/>
<path d="M103.726 32.9824H104.587V36.6424H109.172V32.9824H110.033V41.4287H109.172V37.4272H104.581V41.4287H103.72L103.726 32.9824Z" fill="#00264D"/>
<path d="M120.477 40.638H124.991V41.4287H119.611V32.9824H124.836V33.7671H120.466V36.6424H124.549V37.4272H120.466L120.477 40.638Z" fill="#00264D"/>
<path d="M133.833 41.4287H132.835L136.5 32.9824H137.337L141.002 41.4287H140.003L139.065 39.2063H134.76L133.833 41.4287ZM135.083 38.4335H138.742L136.948 33.9947L135.083 38.4335Z" fill="#00264D"/>
<path d="M150.298 40.638H154.226V41.4287H149.443V32.9824H150.298V40.638Z" fill="#00264D"/>
<path d="M164.299 41.4287H163.439V33.7671H160.617V32.9824H167.121V33.7671H164.299V41.4287Z" fill="#00264D"/>
<path d="M175.724 32.9824H176.585V36.6424H181.176V32.9824H182.037V41.4287H181.176V37.4272H176.585V41.4287H175.724V32.9824Z" fill="#00264D"/>
<path d="M71.9146 26.4171L64.4117 7.58369C64.3113 7.28087 64.1413 7.00592 63.9155 6.78099C63.7227 6.60871 63.4794 6.50363 63.222 6.48148L62.3551 6.42757V5.77463H70.2407V6.44554L69.3319 6.49945C68.8863 6.50145 68.4476 6.61032 68.0526 6.81694C67.9316 6.90264 67.8349 7.01838 67.772 7.15279C67.7091 7.28721 67.6822 7.4357 67.6938 7.58369C67.6972 7.73717 67.7173 7.88982 67.7536 8.03895C67.7921 8.2236 67.8482 8.40413 67.921 8.57807L73.206 21.9903L77.9887 8.97942C78.0646 8.76148 78.1285 8.5395 78.18 8.3145C78.2203 8.14361 78.2423 7.96891 78.2458 7.79335C78.2642 7.59251 78.225 7.39059 78.1329 7.21128C78.0407 7.03197 77.8995 6.8827 77.7257 6.78099C77.1129 6.5344 76.4541 6.42403 75.7946 6.45752V5.77463H82.2693V6.44554L81.6296 6.55935C81.0356 6.62394 80.476 6.87081 80.0274 7.2662C79.559 7.83994 79.2058 8.49898 78.9871 9.20705L72.5005 26.4171H71.9146Z" fill="#00264D"/>
<path d="M91.5897 26.3632C90.2639 26.4039 88.9448 26.1611 87.7201 25.6509C86.4954 25.1406 85.3933 24.3746 84.4873 23.404C82.5968 21.3455 81.5954 18.6216 81.7013 15.8263C81.5952 13.0644 82.5838 10.3726 84.4514 8.33845C85.3575 7.37555 86.458 6.6173 87.6796 6.11426C88.9013 5.61121 90.2159 5.37493 91.5359 5.42119C92.8695 5.37169 94.1985 5.6061 95.4352 6.10896C96.6718 6.61181 97.7879 7.37169 98.71 8.33845C100.551 10.2873 101.472 12.8212 101.472 15.9401C101.472 19.059 100.555 21.5689 98.722 23.4699C97.8039 24.4287 96.6939 25.1822 95.4647 25.6809C94.2355 26.1795 92.9149 26.412 91.5897 26.3632ZM84.7862 16.0958C84.7862 18.9153 85.4219 21.2135 86.6933 22.9906C87.2263 23.8089 87.9546 24.481 88.8121 24.9463C89.6697 25.4115 90.6294 25.6552 91.6046 25.6552C92.5798 25.6552 93.5396 25.4115 94.3971 24.9463C95.2547 24.481 95.9829 23.8089 96.5159 22.9906C97.7794 21.2055 98.4111 18.8454 98.4111 15.9101C98.4111 12.9749 97.7913 10.5988 96.5518 8.78173C96.0295 7.95522 95.3049 7.27637 94.4468 6.80978C93.5887 6.34318 92.6257 6.10437 91.6495 6.11606C90.6584 6.10909 89.6821 6.35647 88.8135 6.83462C87.9449 7.31276 87.213 8.00577 86.6874 8.84762C85.4199 10.6647 84.7862 13.0807 84.7862 16.0958Z" fill="#00264D"/>
<path d="M103.714 26.0097V25.3089H103.911C104.448 25.3671 104.989 25.2628 105.466 25.0094C105.711 24.8117 105.83 24.2426 105.83 23.3021V8.45228C105.83 7.52978 105.711 6.97268 105.466 6.76901C104.988 6.51836 104.447 6.41617 103.911 6.47549H103.714V5.77463H111.384V6.44554C110.254 6.47549 109.543 6.61926 109.244 6.87684C108.945 7.13442 108.796 7.81132 108.796 8.89556V23.1464C108.796 24.0569 108.951 24.6559 109.262 24.9435C109.573 25.231 110.26 25.3688 111.325 25.3568H113.244C114.73 25.4456 116.207 25.0688 117.47 24.2786C118.479 23.5637 119.66 21.9663 121.016 19.4863H121.655L120.035 26.0097H103.714Z" fill="#00264D"/>
<path d="M123.09 26.0097V25.3089L124.071 25.1412C124.64 25.0333 125.238 24.0729 125.864 22.2598C126.157 21.4092 126.402 20.7203 126.587 20.1992L130.868 8.97942V8.91951C130.925 8.78023 130.96 8.63254 130.97 8.48222C130.968 8.38259 130.952 8.28373 130.922 8.1887C130.887 8.08602 130.841 7.98756 130.784 7.89518L130.527 7.45789C130.956 7.16302 131.357 6.82806 131.723 6.45751C132.09 6.07458 132.422 5.65961 132.715 5.21753H132.984L140.093 23.7275C140.236 24.2191 140.514 24.6609 140.894 25.0034C141.3 25.2369 141.766 25.3433 142.233 25.3089V26.0097H134.617V25.3089L135.507 25.1951C135.914 25.1784 136.312 25.072 136.673 24.8836C136.759 24.8102 136.827 24.718 136.871 24.6141C136.916 24.5102 136.936 24.3975 136.93 24.2845C136.928 24.1297 136.912 23.9753 136.882 23.8233C136.846 23.6518 136.796 23.4835 136.733 23.3201L134.939 18.462H128.118L126.629 22.4755C126.505 22.8043 126.402 23.1404 126.318 23.4819C126.263 23.6973 126.233 23.9184 126.229 24.1408C126.224 24.2807 126.256 24.4193 126.321 24.5432C126.386 24.6671 126.482 24.772 126.599 24.8476C127 25.0654 127.438 25.2037 127.891 25.255L128.489 25.3388V26.0097H123.09ZM128.405 17.5635H134.64L131.4 9.27893L128.405 17.5635Z" fill="#00264D"/>
<path d="M158.584 26.0097L157.305 23.6136C156.398 21.7467 155.226 20.0214 153.825 18.492C152.697 17.3578 151.597 16.7927 150.525 16.7967H150.268H150.13V23.5597C150.099 23.8092 150.123 24.0626 150.2 24.3019C150.278 24.5411 150.407 24.7602 150.579 24.9435C150.878 25.1911 151.571 25.3229 152.659 25.3388V26.0097H145.001V25.3089H145.198C145.743 25.3691 146.293 25.2626 146.777 25.0034C147.022 24.7997 147.147 24.1887 147.147 23.1763V8.57807C147.147 7.58369 147.022 6.98466 146.783 6.78099C146.294 6.52996 145.744 6.4279 145.198 6.48747H145.001V5.77463H146.573H148.277H150.525C154.112 5.77463 156.623 6.20193 158.058 7.05654C159.499 7.91315 160.216 9.33884 160.216 11.3456C160.266 12.567 159.863 13.7637 159.086 14.7061C158.182 15.6603 157.003 16.3075 155.714 16.5571C156.91 17.6054 158.189 19.4324 159.618 22.0202C160.019 22.751 160.324 23.2962 160.545 23.6436C160.821 24.1761 161.218 24.6359 161.705 24.9854C162.167 25.24 162.69 25.3623 163.217 25.3388H163.468V26.0097H158.584ZM150.113 16.1857H150.196C150.794 16.2217 151.189 16.2396 151.464 16.2396C153.425 16.2396 154.859 15.8403 155.768 15.0416C156.677 14.2429 157.131 12.9669 157.131 11.2138C157.179 10.5566 157.087 9.89672 156.862 9.27739C156.638 8.65806 156.285 8.09317 155.828 7.61963C154.796 6.73434 153.459 6.28735 152.103 6.37365C151.554 6.32132 151.005 6.47972 150.567 6.81693C150.222 7.24018 150.059 7.78291 150.113 8.32648V16.1857Z" fill="#00264D"/>
<path d="M166.219 26.0097V25.3508C166.815 25.3897 167.411 25.2763 167.952 25.0214C168.209 24.8297 168.335 24.3025 168.335 23.4279V8.45228C168.335 7.52978 168.215 6.97268 167.976 6.76901C167.496 6.51926 166.953 6.41714 166.416 6.47549H166.219V5.77463H180.824L182.277 10.4051L181.679 10.6447C181.203 9.85905 180.678 9.10472 180.106 8.38638C179.738 7.93765 179.316 7.53536 178.851 7.18833C178.405 6.88449 177.9 6.6802 177.368 6.5893C176.348 6.44954 175.319 6.39344 174.289 6.42158H171.3V15.3291H172.089H172.819C174.568 15.3291 175.764 15.0695 176.406 14.5504C177.004 14.0352 177.44 13.0468 177.601 11.5972H178.098V19.7439H177.601C177.402 18.2983 177.004 17.3199 176.406 16.8087C175.808 16.2975 174.612 16.0419 172.819 16.0419H171.3V23.1464C171.3 24.0569 171.45 24.65 171.755 24.9435C172.059 25.237 172.699 25.3568 173.686 25.3568H175.479C176.797 25.4402 178.113 25.1518 179.275 24.5242C180.128 23.9651 181.189 22.6472 182.456 20.5706L183.012 20.7443L181.948 26.0277L166.219 26.0097Z" fill="#00264D"/>
</g>
<defs>
<clipPath id="clip0_2426_106">
<rect width="183" height="48" fill="white"/>
</clipPath>
</defs>
</svg>
